<mxfile host="65bd71144e">
    <diagram id="yXb4Fa-e20-8-4sUAAZw" name="第 1 页">
        <mxGraphModel dx="2514" dy="1207" grid="1" gridSize="10" guides="1" tooltips="1" connect="1" arrows="1" fold="1" page="1" pageScale="1" pageWidth="827" pageHeight="1169" math="0" shadow="0">
            <root>
                <mxCell id="0"/>
                <mxCell id="1" parent="0"/>
                <mxCell id="3" value="" style="rounded=0;whiteSpace=wrap;html=1;sketch=0;glass=0;fontSize=18;strokeWidth=2;fillColor=#d5e8d4;strokeColor=#82b366;gradientColor=#75A15C;fontColor=#0000FF;" parent="1" vertex="1">
                    <mxGeometry x="639.5" y="162" width="25" height="40" as="geometry"/>
                </mxCell>
                <mxCell id="10" value="物理连接" style="endArrow=open;html=1;endFill=0;entryX=1;entryY=0;entryDx=0;entryDy=0;fontSize=18;exitX=0;exitY=1;exitDx=0;exitDy=0;strokeWidth=2;rounded=1;shadow=0;" parent="1" source="3" target="18" edge="1">
                    <mxGeometry width="50" height="50" relative="1" as="geometry">
                        <mxPoint x="632" y="202" as="sourcePoint"/>
                        <mxPoint x="452" y="202" as="targetPoint"/>
                    </mxGeometry>
                </mxCell>
                <mxCell id="22" value="" style="group;fontSize=14;" parent="1" vertex="1" connectable="0">
                    <mxGeometry x="360" y="12" width="120" height="1120" as="geometry"/>
                </mxCell>
                <mxCell id="21" value="" style="endArrow=none;dashed=1;html=1;fontSize=14;strokeWidth=2;rounded=1;shadow=0;" parent="22" edge="1">
                    <mxGeometry width="50" height="50" relative="1" as="geometry">
                        <mxPoint x="75.5" y="1130" as="sourcePoint"/>
                        <mxPoint x="75.78999999999996" y="4" as="targetPoint"/>
                    </mxGeometry>
                </mxCell>
                <mxCell id="6" value="一级设备" style="rounded=1;whiteSpace=wrap;html=1;glass=0;sketch=0;fontSize=20;fillColor=#6d8764;strokeColor=#3A5431;fontColor=#ffffff;gradientDirection=radial;strokeWidth=4;shadow=0;" parent="22" vertex="1">
                    <mxGeometry x="16" y="50" width="120" height="60" as="geometry"/>
                </mxCell>
                <mxCell id="18" value="" style="rounded=0;whiteSpace=wrap;html=1;sketch=0;glass=0;fontSize=18;strokeWidth=2;fillColor=#d5e8d4;strokeColor=#82b366;gradientColor=#75A15C;fontColor=#0000FF;" parent="22" vertex="1">
                    <mxGeometry x="63.5" y="190" width="25" height="40" as="geometry"/>
                </mxCell>
                <mxCell id="57" value="" style="rounded=0;whiteSpace=wrap;html=1;sketch=0;glass=0;fontSize=18;strokeWidth=2;fillColor=#d5e8d4;strokeColor=#82b366;gradientColor=#75A15C;fontColor=#0000FF;" parent="22" vertex="1">
                    <mxGeometry x="63.5" y="548" width="25" height="40" as="geometry"/>
                </mxCell>
                <mxCell id="69" value="转发命令/数据" style="endArrow=open;html=1;endFill=0;entryX=1;entryY=0;entryDx=0;entryDy=0;exitX=0;exitY=1;exitDx=0;exitDy=0;fontSize=18;strokeWidth=2;rounded=1;shadow=0;" parent="22" edge="1">
                    <mxGeometry width="50" height="50" relative="1" as="geometry">
                        <mxPoint x="-151.5" y="789" as="sourcePoint"/>
                        <mxPoint x="63.5" y="789" as="targetPoint"/>
                        <Array as="points"/>
                    </mxGeometry>
                </mxCell>
                <mxCell id="70" value="执行命令" style="rounded=0;whiteSpace=wrap;html=1;sketch=0;glass=0;fontSize=18;strokeWidth=2;fillColor=#d5e8d4;strokeColor=#82b366;gradientColor=#75A15C;fontColor=#000000;" parent="22" vertex="1">
                    <mxGeometry x="63.5" y="789" width="25" height="91" as="geometry"/>
                </mxCell>
                <mxCell id="99" value="" style="rounded=0;whiteSpace=wrap;html=1;sketch=0;glass=0;fontSize=18;strokeWidth=2;fillColor=#d5e8d4;strokeColor=#82b366;gradientColor=#75A15C;fontColor=#0000FF;" parent="22" vertex="1">
                    <mxGeometry x="63" y="971.04" width="25" height="40" as="geometry"/>
                </mxCell>
                <mxCell id="100" value="" style="rounded=0;whiteSpace=wrap;html=1;sketch=0;glass=0;fontSize=18;strokeWidth=2;fillColor=#d5e8d4;strokeColor=#82b366;gradientColor=#75A15C;fontColor=#0000FF;" parent="22" vertex="1">
                    <mxGeometry x="-177" y="1011.04" width="25" height="40" as="geometry"/>
                </mxCell>
                <mxCell id="101" value="返回结果" style="endArrow=open;html=1;endFill=0;entryX=1;entryY=0;entryDx=0;entryDy=0;exitX=0;exitY=1;exitDx=0;exitDy=0;fontSize=18;strokeWidth=2;rounded=1;shadow=0;" parent="22" source="99" target="100" edge="1">
                    <mxGeometry width="50" height="50" relative="1" as="geometry">
                        <mxPoint x="60.5" y="1011.04" as="sourcePoint"/>
                        <mxPoint x="-144.5" y="1011.04" as="targetPoint"/>
                        <Array as="points"/>
                    </mxGeometry>
                </mxCell>
                <mxCell id="23" value="" style="group;fontSize=14;" parent="1" vertex="1" connectable="0">
                    <mxGeometry x="576" y="8" width="147" height="1120" as="geometry"/>
                </mxCell>
                <mxCell id="11" value="" style="endArrow=none;dashed=1;html=1;fontSize=14;strokeWidth=2;rounded=1;shadow=0;" parent="23" edge="1">
                    <mxGeometry width="50" height="50" relative="1" as="geometry">
                        <mxPoint x="75" y="1130" as="sourcePoint"/>
                        <mxPoint x="75.28999999999996" y="4" as="targetPoint"/>
                    </mxGeometry>
                </mxCell>
                <mxCell id="8" value="二级设备" style="rounded=1;whiteSpace=wrap;html=1;glass=0;sketch=0;fontSize=20;fillColor=#6d8764;strokeColor=#3A5431;fontColor=#ffffff;gradientDirection=radial;strokeWidth=4;shadow=0;" parent="23" vertex="1">
                    <mxGeometry x="16" y="50" width="120" height="60" as="geometry"/>
                </mxCell>
                <mxCell id="59" value="" style="rounded=0;whiteSpace=wrap;html=1;sketch=0;glass=0;fontSize=18;strokeWidth=2;fillColor=#d5e8d4;strokeColor=#82b366;gradientColor=#75A15C;fontColor=#0000FF;" parent="23" vertex="1">
                    <mxGeometry x="63.5" y="588" width="25" height="40" as="geometry"/>
                </mxCell>
                <mxCell id="73" value="执行命令" style="rounded=0;whiteSpace=wrap;html=1;sketch=0;glass=0;fontSize=18;strokeWidth=2;fillColor=#d5e8d4;strokeColor=#82b366;gradientColor=#75A15C;fontColor=#000000;" parent="23" vertex="1">
                    <mxGeometry x="63.5" y="884" width="25" height="91" as="geometry"/>
                </mxCell>
                <mxCell id="74" value="转发命令/数据" style="endArrow=open;html=1;endFill=0;fontSize=18;exitX=1;exitY=1;exitDx=0;exitDy=0;strokeWidth=2;rounded=1;shadow=0;" parent="23" source="70" edge="1">
                    <mxGeometry width="50" height="50" relative="1" as="geometry">
                        <mxPoint x="-151.5" y="883" as="sourcePoint"/>
                        <mxPoint x="64" y="884" as="targetPoint"/>
                    </mxGeometry>
                </mxCell>
                <mxCell id="24" value="" style="group;fontSize=17;" parent="1" vertex="1" connectable="0">
                    <mxGeometry x="96" y="12" width="120" height="1120" as="geometry"/>
                </mxCell>
                <mxCell id="13" value="" style="endArrow=none;dashed=1;html=1;fontSize=14;strokeWidth=2;rounded=1;shadow=0;" parent="24" edge="1">
                    <mxGeometry width="50" height="50" relative="1" as="geometry">
                        <mxPoint x="75.28999999999996" y="1130" as="sourcePoint"/>
                        <mxPoint x="75.57999999999993" y="4" as="targetPoint"/>
                    </mxGeometry>
                </mxCell>
                <mxCell id="5" value="跳板机" style="rounded=1;whiteSpace=wrap;html=1;glass=0;sketch=0;fontSize=20;gradientDirection=radial;strokeWidth=4;shadow=0;fillColor=#6d8764;strokeColor=#3A5431;fontColor=#ffffff;" parent="24" vertex="1">
                    <mxGeometry x="16" y="50" width="120" height="60" as="geometry"/>
                </mxCell>
                <mxCell id="25" value="" style="rounded=0;whiteSpace=wrap;html=1;sketch=0;glass=0;fontSize=18;strokeWidth=2;fillColor=#d5e8d4;strokeColor=#82b366;gradientColor=#75A15C;fontColor=#0000FF;" parent="24" vertex="1">
                    <mxGeometry x="63.5" y="230" width="25" height="40" as="geometry"/>
                </mxCell>
                <mxCell id="47" value="" style="rounded=0;whiteSpace=wrap;html=1;sketch=0;glass=0;fontSize=18;strokeWidth=2;fillColor=#d5e8d4;strokeColor=#82b366;gradientColor=#75A15C;fontColor=#0000FF;" parent="24" vertex="1">
                    <mxGeometry x="63.5" y="340" width="25" height="70" as="geometry"/>
                </mxCell>
                <mxCell id="53" value="" style="rounded=0;whiteSpace=wrap;html=1;sketch=0;glass=0;fontSize=18;strokeWidth=2;fillColor=#d5e8d4;strokeColor=#82b366;gradientColor=#75A15C;fontColor=#0000FF;" parent="24" vertex="1">
                    <mxGeometry x="63.5" y="508" width="25" height="60" as="geometry"/>
                </mxCell>
                <mxCell id="56" value="打开shell子进程" style="endArrow=open;html=1;endFill=0;entryX=1;entryY=0;entryDx=0;entryDy=0;exitX=0;exitY=1;exitDx=0;exitDy=0;fontSize=18;strokeWidth=2;rounded=1;shadow=0;" parent="24" edge="1">
                    <mxGeometry width="50" height="50" relative="1" as="geometry">
                        <mxPoint x="88.5" y="548" as="sourcePoint"/>
                        <mxPoint x="303.5" y="548" as="targetPoint"/>
                        <Array as="points"/>
                    </mxGeometry>
                </mxCell>
                <mxCell id="65" value="" style="rounded=0;whiteSpace=wrap;html=1;sketch=0;glass=0;fontSize=18;strokeWidth=2;fillColor=#d5e8d4;strokeColor=#82b366;gradientColor=#75A15C;fontColor=#0000FF;" parent="24" vertex="1">
                    <mxGeometry x="63.5" y="749" width="25" height="40" as="geometry"/>
                </mxCell>
                <mxCell id="19" value="声明设备已上线" style="endArrow=open;html=1;endFill=0;entryX=1;entryY=0;entryDx=0;entryDy=0;exitX=0;exitY=1;exitDx=0;exitDy=0;fontSize=18;strokeWidth=2;rounded=1;shadow=0;" parent="1" source="18" target="25" edge="1">
                    <mxGeometry width="50" height="50" relative="1" as="geometry">
                        <mxPoint x="397" y="242" as="sourcePoint"/>
                        <mxPoint x="192" y="242" as="targetPoint"/>
                        <Array as="points"/>
                    </mxGeometry>
                </mxCell>
                <mxCell id="4" value="&lt;font style=&quot;font-size: 20px&quot;&gt;用户&lt;/font&gt;" style="shape=umlActor;verticalLabelPosition=bottom;verticalAlign=top;html=1;outlineConnect=0;rounded=1;glass=0;sketch=0;fontSize=14;strokeWidth=4;fillColor=#6d8764;fontColor=#ffffff;strokeColor=#3A5431;" parent="1" vertex="1">
                    <mxGeometry x="-101" y="47" width="45" height="90" as="geometry"/>
                </mxCell>
                <mxCell id="39" value="" style="rounded=0;whiteSpace=wrap;html=1;sketch=0;glass=0;fontSize=18;strokeWidth=2;fillColor=#d5e8d4;strokeColor=#82b366;gradientColor=#75A15C;fontColor=#0000FF;" parent="1" vertex="1">
                    <mxGeometry x="-91" y="312" width="25" height="40" as="geometry"/>
                </mxCell>
                <mxCell id="45" value="" style="endArrow=open;html=1;fontSize=18;entryX=0;entryY=0;entryDx=0;entryDy=0;endFill=0;exitX=1;exitY=1;exitDx=0;exitDy=0;strokeWidth=2;rounded=1;shadow=0;" parent="1" target="47" edge="1" source="39">
                    <mxGeometry width="50" height="50" relative="1" as="geometry">
                        <mxPoint x="-39" y="352" as="sourcePoint"/>
                        <mxPoint x="136" y="352" as="targetPoint"/>
                    </mxGeometry>
                </mxCell>
                <mxCell id="46" value="查询设备列表" style="edgeLabel;html=1;align=center;verticalAlign=middle;resizable=0;points=[];fontSize=18;" parent="45" vertex="1" connectable="0">
                    <mxGeometry x="-0.184" y="2" relative="1" as="geometry">
                        <mxPoint as="offset"/>
                    </mxGeometry>
                </mxCell>
                <mxCell id="49" value="" style="endArrow=open;html=1;fontSize=18;exitX=0;exitY=1;exitDx=0;exitDy=0;entryX=1;entryY=0;entryDx=0;entryDy=0;endFill=0;strokeWidth=2;rounded=1;shadow=0;" parent="1" source="47" target="51" edge="1">
                    <mxGeometry width="50" height="50" relative="1" as="geometry">
                        <mxPoint x="-39" y="412" as="sourcePoint"/>
                        <mxPoint x="-34" y="392" as="targetPoint"/>
                    </mxGeometry>
                </mxCell>
                <mxCell id="50" value="返回设备列表" style="edgeLabel;html=1;align=center;verticalAlign=middle;resizable=0;points=[];fontSize=18;" parent="49" vertex="1" connectable="0">
                    <mxGeometry x="-0.184" y="2" relative="1" as="geometry">
                        <mxPoint as="offset"/>
                    </mxGeometry>
                </mxCell>
                <mxCell id="51" value="" style="rounded=0;whiteSpace=wrap;html=1;sketch=0;glass=0;fontSize=18;strokeWidth=2;fillColor=#d5e8d4;strokeColor=#82b366;gradientColor=#75A15C;fontColor=#0000FF;" parent="1" vertex="1">
                    <mxGeometry x="-91" y="422" width="25" height="98" as="geometry"/>
                </mxCell>
                <mxCell id="60" value="打开二级shell&lt;br style=&quot;font-size: 18px;&quot;&gt;eg：adb shell" style="endArrow=open;html=1;endFill=0;entryX=1;entryY=0;entryDx=0;entryDy=0;fontSize=18;exitX=0;exitY=1;exitDx=0;exitDy=0;strokeWidth=2;rounded=1;shadow=0;" parent="1" edge="1">
                    <mxGeometry width="50" height="50" relative="1" as="geometry">
                        <mxPoint x="424.5" y="600" as="sourcePoint"/>
                        <mxPoint x="639.5" y="600" as="targetPoint"/>
                    </mxGeometry>
                </mxCell>
                <mxCell id="61" value="" style="endArrow=open;html=1;fontSize=18;strokeColor=default;strokeWidth=2;dashed=1;dashPattern=1 2;endFill=0;rounded=1;shadow=0;" parent="1" edge="1">
                    <mxGeometry width="50" height="50" relative="1" as="geometry">
                        <mxPoint x="649" y="676" as="sourcePoint"/>
                        <mxPoint x="-74" y="676" as="targetPoint"/>
                    </mxGeometry>
                </mxCell>
                <mxCell id="62" value="数据隧道建立成功" style="edgeLabel;html=1;align=center;verticalAlign=middle;resizable=0;points=[];fontSize=18;" parent="61" vertex="1" connectable="0">
                    <mxGeometry x="0.1441" y="-3" relative="1" as="geometry">
                        <mxPoint x="16" as="offset"/>
                    </mxGeometry>
                </mxCell>
                <mxCell id="63" value="" style="rounded=0;whiteSpace=wrap;html=1;sketch=0;glass=0;fontSize=18;strokeWidth=2;fillColor=#d5e8d4;strokeColor=#82b366;gradientColor=#75A15C;fontColor=#0000FF;" parent="1" vertex="1">
                    <mxGeometry x="-91" y="721" width="25" height="40" as="geometry"/>
                </mxCell>
                <mxCell id="54" value="" style="endArrow=open;html=1;fontSize=18;entryX=0;entryY=0;entryDx=0;entryDy=0;endFill=0;exitX=1;exitY=1;exitDx=0;exitDy=0;strokeWidth=2;rounded=1;shadow=0;" parent="1" source="51" target="53" edge="1">
                    <mxGeometry width="50" height="50" relative="1" as="geometry">
                        <mxPoint x="-66" y="523" as="sourcePoint"/>
                        <mxPoint x="136" y="489" as="targetPoint"/>
                    </mxGeometry>
                </mxCell>
                <mxCell id="55" value="指定设备" style="edgeLabel;html=1;align=center;verticalAlign=middle;resizable=0;points=[];fontSize=18;" parent="54" vertex="1" connectable="0">
                    <mxGeometry x="-0.184" y="2" relative="1" as="geometry">
                        <mxPoint as="offset"/>
                    </mxGeometry>
                </mxCell>
                <mxCell id="106" value="" style="rounded=0;whiteSpace=wrap;html=1;sketch=0;glass=0;fontSize=18;strokeWidth=2;fillColor=#d5e8d4;strokeColor=#82b366;gradientColor=#75A15C;fontColor=#0000FF;" parent="1" vertex="1">
                    <mxGeometry x="-91" y="1063.04" width="25" height="40" as="geometry"/>
                </mxCell>
                <mxCell id="107" value="返回结果" style="endArrow=open;html=1;endFill=0;entryX=1;entryY=0;entryDx=0;entryDy=0;fontSize=18;exitX=0;exitY=1;exitDx=0;exitDy=0;strokeWidth=2;rounded=1;shadow=0;" parent="1" source="100" target="106" edge="1">
                    <mxGeometry width="50" height="50" relative="1" as="geometry">
                        <mxPoint x="173.5" y="1073.04" as="sourcePoint"/>
                        <mxPoint x="-471" y="1073.04" as="targetPoint"/>
                        <Array as="points"/>
                    </mxGeometry>
                </mxCell>
                <mxCell id="66" value="" style="endArrow=open;html=1;fontSize=18;entryX=0;entryY=0;entryDx=0;entryDy=0;endFill=0;exitX=1;exitY=1;exitDx=0;exitDy=0;strokeWidth=2;rounded=1;shadow=0;" parent="1" target="65" edge="1" source="63">
                    <mxGeometry width="50" height="50" relative="1" as="geometry">
                        <mxPoint x="-39" y="761" as="sourcePoint"/>
                        <mxPoint x="-64" y="761" as="targetPoint"/>
                    </mxGeometry>
                </mxCell>
                <mxCell id="67" value="发送命令/数据" style="edgeLabel;html=1;align=center;verticalAlign=middle;resizable=0;points=[];fontSize=18;" parent="66" vertex="1" connectable="0">
                    <mxGeometry x="-0.184" y="2" relative="1" as="geometry">
                        <mxPoint as="offset"/>
                    </mxGeometry>
                </mxCell>
                <mxCell id="98" value="返回结果" style="endArrow=open;html=1;endFill=0;entryX=1;entryY=0;entryDx=0;entryDy=0;fontSize=18;exitX=0;exitY=1;exitDx=0;exitDy=0;strokeWidth=2;rounded=1;shadow=0;" parent="1" target="99" edge="1" source="73">
                    <mxGeometry width="50" height="50" relative="1" as="geometry">
                        <mxPoint x="639" y="981" as="sourcePoint"/>
                        <mxPoint x="451.5" y="981" as="targetPoint"/>
                    </mxGeometry>
                </mxCell>
                <mxCell id="213" value="" style="endArrow=none;dashed=1;html=1;fontSize=14;strokeWidth=2;rounded=1;shadow=0;" edge="1" parent="1">
                    <mxGeometry width="50" height="50" relative="1" as="geometry">
                        <mxPoint x="-78.84000000000005" y="1142" as="sourcePoint"/>
                        <mxPoint x="-78.55000000000008" y="16" as="targetPoint"/>
                    </mxGeometry>
                </mxCell>
                <mxCell id="239" value="设备列表" style="swimlane;fontStyle=0;childLayout=stackLayout;horizontal=1;startSize=30;horizontalStack=0;resizeParent=1;resizeParentMax=0;resizeLast=0;collapsible=1;marginBottom=0;shadow=0;sketch=1;fontSize=16;fontColor=#000000;strokeWidth=2;fillColor=none;gradientColor=#75A15C;gradientDirection=radial;" vertex="1" parent="1">
                    <mxGeometry x="230" y="330" width="140" height="150" as="geometry">
                        <mxRectangle x="730" y="352" width="100" height="30" as="alternateBounds"/>
                    </mxGeometry>
                </mxCell>
                <mxCell id="240" value="REDMI" style="text;strokeColor=none;fillColor=none;align=left;verticalAlign=middle;spacingLeft=4;spacingRight=4;overflow=hidden;points=[[0,0.5],[1,0.5]];portConstraint=eastwest;rotatable=0;shadow=0;sketch=1;fontSize=16;fontColor=#000000;" vertex="1" parent="239">
                    <mxGeometry y="30" width="140" height="30" as="geometry"/>
                </mxCell>
                <mxCell id="241" value="iPhone、iPad" style="text;strokeColor=none;fillColor=none;align=left;verticalAlign=middle;spacingLeft=4;spacingRight=4;overflow=hidden;points=[[0,0.5],[1,0.5]];portConstraint=eastwest;rotatable=0;shadow=0;sketch=1;fontSize=16;fontColor=#000000;" vertex="1" parent="239">
                    <mxGeometry y="60" width="140" height="30" as="geometry"/>
                </mxCell>
                <mxCell id="242" value="USB 计算棒" style="text;strokeColor=none;fillColor=none;align=left;verticalAlign=middle;spacingLeft=4;spacingRight=4;overflow=hidden;points=[[0,0.5],[1,0.5]];portConstraint=eastwest;rotatable=0;shadow=0;sketch=1;fontSize=16;fontColor=#000000;" vertex="1" parent="239">
                    <mxGeometry y="90" width="140" height="30" as="geometry"/>
                </mxCell>
                <mxCell id="243" value="……" style="text;strokeColor=none;fillColor=none;align=left;verticalAlign=middle;spacingLeft=4;spacingRight=4;overflow=hidden;points=[[0,0.5],[1,0.5]];portConstraint=eastwest;rotatable=0;shadow=0;sketch=1;fontSize=16;fontColor=#000000;" vertex="1" parent="239">
                    <mxGeometry y="120" width="140" height="30" as="geometry"/>
                </mxCell>
                <mxCell id="315" value="" style="shape=image;verticalLabelPosition=bottom;labelBackgroundColor=#ffffff;verticalAlign=top;aspect=fixed;imageAspect=0;image=data:image/svg+xml,PHN2ZyB4bWxucz0iaHR0cDovL3d3dy53My5vcmcvMjAwMC9zdmciIHdpZHRoPSIxNDcwIiBoZWlnaHQ9IjgxNiIgc3R5bGU9ImN1cnNvcjogbW92ZTsiIHZpZXdCb3g9IjAgMCAxNDcwIDgxNiI+PGcgdHJhbnNmb3JtPSJ0cmFuc2xhdGUoLTExOTAuNjQyNjIwMjg1MDM1LC01NjkuNjE5MzY5MTUwMzIxMSkgc2NhbGUoMi40MzUxMzIwMzczMjU5NjYpIj48cGF0aCBjbGFzcz0ibGluayIgbWFya2VyLWVuZD0iIiBkPSJNNTIxLjY2NjY2NjY2NjY2NjYsMzU5LCA3MDEuNjY2NjY2NjY2NjY2NiwzMzUiIHN0eWxlPSJzdHJva2Utd2lkdGg6IDAuODZweDsgc3Ryb2tlLW9wYWNpdHk6IDE7IHN0cm9rZTogcmdiKDEyLCAxMiwgMjU1KTsiLz48cGF0aCBjbGFzcz0ibGluayIgbWFya2VyLWVuZD0iIiBkPSJNNTIxLjY2NjY2NjY2NjY2NjYsMzU5LCA3MDEuNjY2NjY2NjY2NjY2NiwzOTgiIHN0eWxlPSJzdHJva2Utd2lkdGg6IDAuODZweDsgc3Ryb2tlLW9wYWNpdHk6IDE7IHN0cm9rZTogcmdiKDIzMiwgMjMyLCAyNTUpOyIvPjxwYXRoIGNsYXNzPSJsaW5rIiBtYXJrZXItZW5kPSIiIGQ9Ik01MjEuNjY2NjY2NjY2NjY2NiwzNTksIDcwMS42NjY2NjY2NjY2NjY2LDQ2MSIgc3R5bGU9InN0cm9rZS13aWR0aDogMC44NnB4OyBzdHJva2Utb3BhY2l0eTogMTsgc3Ryb2tlOiByZ2IoODcsIDg3LCAyNTUpOyIvPjxwYXRoIGNsYXNzPSJsaW5rIiBtYXJrZXItZW5kPSIiIGQ9Ik01MjEuNjY2NjY2NjY2NjY2NiwzNTksIDcwMS42NjY2NjY2NjY2NjY2LDUyNCIgc3R5bGU9InN0cm9rZS13aWR0aDogMC44NnB4OyBzdHJva2Utb3BhY2l0eTogMTsgc3Ryb2tlOiByZ2IoMjQwLCAyNDAsIDI1NSk7Ii8+PHBhdGggY2xhc3M9ImxpbmsiIG1hcmtlci1lbmQ9IiIgZD0iTTUyMS42NjY2NjY2NjY2NjY2LDM5OCwgNzAxLjY2NjY2NjY2NjY2NjYsMzM1IiBzdHlsZT0ic3Ryb2tlLXdpZHRoOiAwLjg2cHg7IHN0cm9rZS1vcGFjaXR5OiAxOyBzdHJva2U6IHJnYigyNTUsIDEyNSwgMTI1KTsiLz48cGF0aCBjbGFzcz0ibGluayIgbWFya2VyLWVuZD0iIiBkPSJNNTIxLjY2NjY2NjY2NjY2NjYsMzk4LCA3MDEuNjY2NjY2NjY2NjY2NiwzOTgiIHN0eWxlPSJzdHJva2Utd2lkdGg6IDAuODZweDsgc3Ryb2tlLW9wYWNpdHk6IDE7IHN0cm9rZTogcmdiKDI1NSwgMTU4LCAxNTgpOyIvPjxwYXRoIGNsYXNzPSJsaW5rIiBtYXJrZXItZW5kPSIiIGQ9Ik01MjEuNjY2NjY2NjY2NjY2NiwzOTgsIDcwMS42NjY2NjY2NjY2NjY2LDQ2MSIgc3R5bGU9InN0cm9rZS13aWR0aDogMC44NnB4OyBzdHJva2Utb3BhY2l0eTogMTsgc3Ryb2tlOiByZ2IoMzgsIDM4LCAyNTUpOyIvPjxwYXRoIGNsYXNzPSJsaW5rIiBtYXJrZXItZW5kPSIiIGQ9Ik01MjEuNjY2NjY2NjY2NjY2NiwzOTgsIDcwMS42NjY2NjY2NjY2NjY2LDUyNCIgc3R5bGU9InN0cm9rZS13aWR0aDogMC44NnB4OyBzdHJva2Utb3BhY2l0eTogMTsgc3Ryb2tlOiByZ2IoMjU1LCAxNTcsIDE1Nyk7Ii8+PHBhdGggY2xhc3M9ImxpbmsiIG1hcmtlci1lbmQ9IiIgZD0iTTUyMS42NjY2NjY2NjY2NjY2LDQzNywgNzAxLjY2NjY2NjY2NjY2NjYsMzM1IiBzdHlsZT0ic3Ryb2tlLXdpZHRoOiAwLjg2cHg7IHN0cm9rZS1vcGFjaXR5OiAxOyBzdHJva2U6IHJnYigyNTUsIDIyOSwgMjI5KTsiLz48cGF0aCBjbGFzcz0ibGluayIgbWFya2VyLWVuZD0iIiBkPSJNNTIxLjY2NjY2NjY2NjY2NjYsNDM3LCA3MDEuNjY2NjY2NjY2NjY2NiwzOTgiIHN0eWxlPSJzdHJva2Utd2lkdGg6IDAuODZweDsgc3Ryb2tlLW9wYWNpdHk6IDE7IHN0cm9rZTogcmdiKDI1NSwgMjU0LCAyNTQpOyIvPjxwYXRoIGNsYXNzPSJsaW5rIiBtYXJrZXItZW5kPSIiIGQ9Ik01MjEuNjY2NjY2NjY2NjY2Niw0MzcsIDcwMS42NjY2NjY2NjY2NjY2LDQ2MSIgc3R5bGU9InN0cm9rZS13aWR0aDogMC44NnB4OyBzdHJva2Utb3BhY2l0eTogMTsgc3Ryb2tlOiByZ2IoMTc5LCAxNzksIDI1NSk7Ii8+PHBhdGggY2xhc3M9ImxpbmsiIG1hcmtlci1lbmQ9IiIgZD0iTTUyMS42NjY2NjY2NjY2NjY2LDQzNywgNzAxLjY2NjY2NjY2NjY2NjYsNTI0IiBzdHlsZT0ic3Ryb2tlLXdpZHRoOiAwLjg2cHg7IHN0cm9rZS1vcGFjaXR5OiAxOyBzdHJva2U6IHJnYigyNTUsIDEzOSwgMTM5KTsiLz48cGF0aCBjbGFzcz0ibGluayIgbWFya2VyLWVuZD0iIiBkPSJNNzAxLjY2NjY2NjY2NjY2NjYsMjcyLCA4ODEuNjY2NjY2NjY2NjY2NiwzMzgiIHN0eWxlPSJzdHJva2Utd2lkdGg6IDAuODZweDsgc3Ryb2tlLW9wYWNpdHk6IDE7IHN0cm9rZTogcmdiKDMsIDMsIDI1NSk7Ii8+PHBhdGggY2xhc3M9ImxpbmsiIG1hcmtlci1lbmQ9IiIgZD0iTTcwMS42NjY2NjY2NjY2NjY2LDI3MiwgODgxLjY2NjY2NjY2NjY2NjYsMzk4IiBzdHlsZT0ic3Ryb2tlLXdpZHRoOiAwLjg2cHg7IHN0cm9rZS1vcGFjaXR5OiAxOyBzdHJva2U6IHJnYigyNTUsIDE1OSwgMTU5KTsiLz48cGF0aCBjbGFzcz0ibGluayIgbWFya2VyLWVuZD0iIiBkPSJNNzAxLjY2NjY2NjY2NjY2NjYsMjcyLCA4ODEuNjY2NjY2NjY2NjY2Niw0NTgiIHN0eWxlPSJzdHJva2Utd2lkdGg6IDAuODZweDsgc3Ryb2tlLW9wYWNpdHk6IDE7IHN0cm9rZTogcmdiKDI1NSwgODQsIDg0KTsiLz48cGF0aCBjbGFzcz0ibGluayIgbWFya2VyLWVuZD0iIiBkPSJNNzAxLjY2NjY2NjY2NjY2NjYsMjcyLCA4ODEuNjY2NjY2NjY2NjY2Niw1MTgiIHN0eWxlPSJzdHJva2Utd2lkdGg6IDAuODZweDsgc3Ryb2tlLW9wYWNpdHk6IDE7IHN0cm9rZTogcmdiKDI1NSwgMzIsIDMyKTsiLz48cGF0aCBjbGFzcz0ibGluayIgbWFya2VyLWVuZD0iIiBkPSJNNzAxLjY2NjY2NjY2NjY2NjYsMzM1LCA4ODEuNjY2NjY2NjY2NjY2NiwzMzgiIHN0eWxlPSJzdHJva2Utd2lkdGg6IDAuODZweDsgc3Ryb2tlLW9wYWNpdHk6IDE7IHN0cm9rZTogcmdiKDg5LCA4OSwgMjU1KTsiLz48cGF0aCBjbGFzcz0ibGluayIgbWFya2VyLWVuZD0iIiBkPSJNNzAxLjY2NjY2NjY2NjY2NjYsMzM1LCA4ODEuNjY2NjY2NjY2NjY2NiwzOTgiIHN0eWxlPSJzdHJva2Utd2lkdGg6IDAuODZweDsgc3Ryb2tlLW9wYWNpdHk6IDE7IHN0cm9rZTogcmdiKDIzMiwgMjMyLCAyNTUpOyIvPjxwYXRoIGNsYXNzPSJsaW5rIiBtYXJrZXItZW5kPSIiIGQ9Ik03MDEuNjY2NjY2NjY2NjY2NiwzMzUsIDg4MS42NjY2NjY2NjY2NjY2LDQ1OCIgc3R5bGU9InN0cm9rZS13aWR0aDogMC44NnB4OyBzdHJva2Utb3BhY2l0eTogMTsgc3Ryb2tlOiByZ2IoOTMsIDkzLCAyNTUpOyIvPjxwYXRoIGNsYXNzPSJsaW5rIiBtYXJrZXItZW5kPSIiIGQ9Ik03MDEuNjY2NjY2NjY2NjY2NiwzMzUsIDg4MS42NjY2NjY2NjY2NjY2LDUxOCIgc3R5bGU9InN0cm9rZS13aWR0aDogMC44NnB4OyBzdHJva2Utb3BhY2l0eTogMTsgc3Ryb2tlOiByZ2IoNTAsIDUwLCAyNTUpOyIvPjxwYXRoIGNsYXNzPSJsaW5rIiBtYXJrZXItZW5kPSIiIGQ9Ik03MDEuNjY2NjY2NjY2NjY2NiwzOTgsIDg4MS42NjY2NjY2NjY2NjY2LDMzOCIgc3R5bGU9InN0cm9rZS13aWR0aDogMC44NnB4OyBzdHJva2Utb3BhY2l0eTogMTsgc3Ryb2tlOiByZ2IoMjQ5LCAyNDksIDI1NSk7Ii8+PHBhdGggY2xhc3M9ImxpbmsiIG1hcmtlci1lbmQ9IiIgZD0iTTcwMS42NjY2NjY2NjY2NjY2LDM5OCwgODgxLjY2NjY2NjY2NjY2NjYsMzk4IiBzdHlsZT0ic3Ryb2tlLXdpZHRoOiAwLjg2cHg7IHN0cm9rZS1vcGFjaXR5OiAxOyBzdHJva2U6IHJnYigzMiwgMzIsIDI1NSk7Ii8+PHBhdGggY2xhc3M9ImxpbmsiIG1hcmtlci1lbmQ9IiIgZD0iTTcwMS42NjY2NjY2NjY2NjY2LDM5OCwgODgxLjY2NjY2NjY2NjY2NjYsNDU4IiBzdHlsZT0ic3Ryb2tlLXdpZHRoOiAwLjg2cHg7IHN0cm9rZS1vcGFjaXR5OiAxOyBzdHJva2U6IHJnYigxODQsIDE4NCwgMjU1KTsiLz48cGF0aCBjbGFzcz0ibGluayIgbWFya2VyLWVuZD0iIiBkPSJNNzAxLjY2NjY2NjY2NjY2NjYsMzk4LCA4ODEuNjY2NjY2NjY2NjY2Niw1MTgiIHN0eWxlPSJzdHJva2Utd2lkdGg6IDAuODZweDsgc3Ryb2tlLW9wYWNpdHk6IDE7IHN0cm9rZTogcmdiKDI1NSwgMTY2LCAxNjYpOyIvPjxwYXRoIGNsYXNzPSJsaW5rIiBtYXJrZXItZW5kPSIiIGQ9Ik03MDEuNjY2NjY2NjY2NjY2Niw0NjEsIDg4MS42NjY2NjY2NjY2NjY2LDMzOCIgc3R5bGU9InN0cm9rZS13aWR0aDogMC44NnB4OyBzdHJva2Utb3BhY2l0eTogMTsgc3Ryb2tlOiByZ2IoMTYwLCAxNjAsIDI1NSk7Ii8+PHBhdGggY2xhc3M9ImxpbmsiIG1hcmtlci1lbmQ9IiIgZD0iTTcwMS42NjY2NjY2NjY2NjY2LDQ2MSwgODgxLjY2NjY2NjY2NjY2NjYsMzk4IiBzdHlsZT0ic3Ryb2tlLXdpZHRoOiAwLjg2cHg7IHN0cm9rZS1vcGFjaXR5OiAxOyBzdHJva2U6IHJnYigyNTUsIDIxNSwgMjE1KTsiLz48cGF0aCBjbGFzcz0ibGluayIgbWFya2VyLWVuZD0iIiBkPSJNNzAxLjY2NjY2NjY2NjY2NjYsNDYxLCA4ODEuNjY2NjY2NjY2NjY2Niw0NTgiIHN0eWxlPSJzdHJva2Utd2lkdGg6IDAuODZweDsgc3Ryb2tlLW9wYWNpdHk6IDE7IHN0cm9rZTogcmdiKDI1NSwgMjAsIDIwKTsiLz48cGF0aCBjbGFzcz0ibGluayIgbWFya2VyLWVuZD0iIiBkPSJNNzAxLjY2NjY2NjY2NjY2NjYsNDYxLCA4ODEuNjY2NjY2NjY2NjY2Niw1MTgiIHN0eWxlPSJzdHJva2Utd2lkdGg6IDAuODZweDsgc3Ryb2tlLW9wYWNpdHk6IDE7IHN0cm9rZTogcmdiKDI1NSwgMjQyLCAyNDIpOyIvPjxwYXRoIGNsYXNzPSJsaW5rIiBtYXJrZXItZW5kPSIiIGQ9Ik03MDEuNjY2NjY2NjY2NjY2Niw1MjQsIDg4MS42NjY2NjY2NjY2NjY2LDMzOCIgc3R5bGU9InN0cm9rZS13aWR0aDogMC44NnB4OyBzdHJva2Utb3BhY2l0eTogMTsgc3Ryb2tlOiByZ2IoMTg5LCAxODksIDI1NSk7Ii8+PHBhdGggY2xhc3M9ImxpbmsiIG1hcmtlci1lbmQ9IiIgZD0iTTcwMS42NjY2NjY2NjY2NjY2LDUyNCwgODgxLjY2NjY2NjY2NjY2NjYsMzk4IiBzdHlsZT0ic3Ryb2tlLXdpZHRoOiAwLjg2cHg7IHN0cm9rZS1vcGFjaXR5OiAxOyBzdHJva2U6IHJnYigyNTUsIDAsIDApOyIvPjxwYXRoIGNsYXNzPSJsaW5rIiBtYXJrZXItZW5kPSIiIGQ9Ik03MDEuNjY2NjY2NjY2NjY2Niw1MjQsIDg4MS42NjY2NjY2NjY2NjY2LDQ1OCIgc3R5bGU9InN0cm9rZS13aWR0aDogMC44NnB4OyBzdHJva2Utb3BhY2l0eTogMTsgc3Ryb2tlOiByZ2IoMjU1LCAyMDMsIDIwMyk7Ii8+PHBhdGggY2xhc3M9ImxpbmsiIG1hcmtlci1lbmQ9IiIgZD0iTTcwMS42NjY2NjY2NjY2NjY2LDUyNCwgODgxLjY2NjY2NjY2NjY2NjYsNTE4IiBzdHlsZT0ic3Ryb2tlLXdpZHRoOiAwLjg2cHg7IHN0cm9rZS1vcGFjaXR5OiAxOyBzdHJva2U6IHJnYigxMzcsIDEzNywgMjU1KTsiLz48cGF0aCBjbGFzcz0ibGluayIgbWFya2VyLWVuZD0iIiBkPSJNODgxLjY2NjY2NjY2NjY2NjYsMjc4LCAxMDYxLjY2NjY2NjY2NjY2NjcsMzY5IiBzdHlsZT0ic3Ryb2tlLXdpZHRoOiAwLjg2cHg7IHN0cm9rZS1vcGFjaXR5OiAxOyBzdHJva2U6IHJnYigyNTUsIDY4LCA2OCk7Ii8+PHBhdGggY2xhc3M9ImxpbmsiIG1hcmtlci1lbmQ9IiIgZD0iTTg4MS42NjY2NjY2NjY2NjY2LDMzOCwgMTA2MS42NjY2NjY2NjY2NjY3LDM2OSIgc3R5bGU9InN0cm9rZS13aWR0aDogMC44NnB4OyBzdHJva2Utb3BhY2l0eTogMTsgc3Ryb2tlOiByZ2IoMTI1LCAxMjUsIDI1NSk7Ii8+PHBhdGggY2xhc3M9ImxpbmsiIG1hcmtlci1lbmQ9IiIgZD0iTTg4MS42NjY2NjY2NjY2NjY2LDM5OCwgMTA2MS42NjY2NjY2NjY2NjY3LDM2OSIgc3R5bGU9InN0cm9rZS13aWR0aDogMC44NnB4OyBzdHJva2Utb3BhY2l0eTogMTsgc3Ryb2tlOiByZ2IoMjM1LCAyMzUsIDI1NSk7Ii8+PHBhdGggY2xhc3M9ImxpbmsiIG1hcmtlci1lbmQ9IiIgZD0iTTg4MS42NjY2NjY2NjY2NjY2LDQ1OCwgMTA2MS42NjY2NjY2NjY2NjY3LDM2OSIgc3R5bGU9InN0cm9rZS13aWR0aDogMC44NnB4OyBzdHJva2Utb3BhY2l0eTogMTsgc3Ryb2tlOiByZ2IoMjU1LCAxNjQsIDE2NCk7Ii8+PHBhdGggY2xhc3M9ImxpbmsiIG1hcmtlci1lbmQ9IiIgZD0iTTg4MS42NjY2NjY2NjY2NjY2LDUxOCwgMTA2MS42NjY2NjY2NjY2NjY3LDM2OSIgc3R5bGU9InN0cm9rZS13aWR0aDogMC44NnB4OyBzdHJva2Utb3BhY2l0eTogMTsgc3Ryb2tlOiByZ2IoMjU1LCA4NCwgODQpOyIvPjxwYXRoIGNsYXNzPSJsaW5rIiBtYXJrZXItZW5kPSIiIGQ9Ik04ODEuNjY2NjY2NjY2NjY2NiwyNzgsIDEwNjEuNjY2NjY2NjY2NjY2Nyw0MjciIHN0eWxlPSJzdHJva2Utd2lkdGg6IDAuODZweDsgc3Ryb2tlLW9wYWNpdHk6IDE7IHN0cm9rZTogcmdiKDE4MSwgMTgxLCAyNTUpOyIvPjxwYXRoIGNsYXNzPSJsaW5rIiBtYXJrZXItZW5kPSIiIGQ9Ik04ODEuNjY2NjY2NjY2NjY2NiwzMzgsIDEwNjEuNjY2NjY2NjY2NjY2Nyw0MjciIHN0eWxlPSJzdHJva2Utd2lkdGg6IDAuODZweDsgc3Ryb2tlLW9wYWNpdHk6IDE7IHN0cm9rZTogcmdiKDkwLCA5MCwgMjU1KTsiLz48cGF0aCBjbGFzcz0ibGluayIgbWFya2VyLWVuZD0iIiBkPSJNODgxLjY2NjY2NjY2NjY2NjYsMzk4LCAxMDYxLjY2NjY2NjY2NjY2NjcsNDI3IiBzdHlsZT0ic3Ryb2tlLXdpZHRoOiAwLjg2cHg7IHN0cm9rZS1vcGFjaXR5OiAxOyBzdHJva2U6IHJnYig3LCA3LCAyNTUpOyIvPjxwYXRoIGNsYXNzPSJsaW5rIiBtYXJrZXItZW5kPSIiIGQ9Ik04ODEuNjY2NjY2NjY2NjY2Niw0NTgsIDEwNjEuNjY2NjY2NjY2NjY2Nyw0MjciIHN0eWxlPSJzdHJva2Utd2lkdGg6IDAuODZweDsgc3Ryb2tlLW9wYWNpdHk6IDE7IHN0cm9rZTogcmdiKDI1NSwgMTgsIDE4KTsiLz48cGF0aCBjbGFzcz0ibGluayIgbWFya2VyLWVuZD0iIiBkPSJNODgxLjY2NjY2NjY2NjY2NjYsNTE4LCAxMDYxLjY2NjY2NjY2NjY2NjcsNDI3IiBzdHlsZT0ic3Ryb2tlLXdpZHRoOiAwLjg2cHg7IHN0cm9rZS1vcGFjaXR5OiAxOyBzdHJva2U6IHJnYigyMDksIDIwOSwgMjU1KTsiLz48cGF0aCBjbGFzcz0ibGluayIgbWFya2VyLWVuZD0iIiBkPSJNNTIxLjY2NjY2NjY2NjY2NjYsMzU5LCA3MDEuNjY2NjY2NjY2NjY2NiwyNzIiIHN0eWxlPSJzdHJva2Utd2lkdGg6IDAuODZweDsgc3Ryb2tlLW9wYWNpdHk6IDE7IHN0cm9rZTogcmdiKDI1NSwgMjQyLCAyNDIpOyIvPjxwYXRoIGNsYXNzPSJsaW5rIiBtYXJrZXItZW5kPSIiIGQ9Ik01MjEuNjY2NjY2NjY2NjY2NiwzOTgsIDcwMS42NjY2NjY2NjY2NjY2LDI3MiIgc3R5bGU9InN0cm9rZS13aWR0aDogMC44NnB4OyBzdHJva2Utb3BhY2l0eTogMTsgc3Ryb2tlOiByZ2IoMjU1LCAyMzAsIDIzMCk7Ii8+PHBhdGggY2xhc3M9ImxpbmsiIG1hcmtlci1lbmQ9IiIgZD0iTTUyMS42NjY2NjY2NjY2NjY2LDQzNywgNzAxLjY2NjY2NjY2NjY2NjYsMjcyIiBzdHlsZT0ic3Ryb2tlLXdpZHRoOiAwLjg2cHg7IHN0cm9rZS1vcGFjaXR5OiAxOyBzdHJva2U6IHJnYigyMzEsIDIzMSwgMjU1KTsiLz48cGF0aCBjbGFzcz0ibGluayIgbWFya2VyLWVuZD0iIiBkPSJNNzAxLjY2NjY2NjY2NjY2NjYsMjcyLCA4ODEuNjY2NjY2NjY2NjY2NiwyNzgiIHN0eWxlPSJzdHJva2Utd2lkdGg6IDAuODZweDsgc3Ryb2tlLW9wYWNpdHk6IDE7IHN0cm9rZTogcmdiKDEyLCAxMiwgMjU1KTsiLz48cGF0aCBjbGFzcz0ibGluayIgbWFya2VyLWVuZD0iIiBkPSJNNzAxLjY2NjY2NjY2NjY2NjYsMzM1LCA4ODEuNjY2NjY2NjY2NjY2NiwyNzgiIHN0eWxlPSJzdHJva2Utd2lkdGg6IDAuODZweDsgc3Ryb2tlLW9wYWNpdHk6IDE7IHN0cm9rZTogcmdiKDIxOCwgMjE4LCAyNTUpOyIvPjxwYXRoIGNsYXNzPSJsaW5rIiBtYXJrZXItZW5kPSIiIGQ9Ik03MDEuNjY2NjY2NjY2NjY2NiwzOTgsIDg4MS42NjY2NjY2NjY2NjY2LDI3OCIgc3R5bGU9InN0cm9rZS13aWR0aDogMC44NnB4OyBzdHJva2Utb3BhY2l0eTogMTsgc3Ryb2tlOiByZ2IoMjU1LCAyMDMsIDIwMyk7Ii8+PHBhdGggY2xhc3M9ImxpbmsiIG1hcmtlci1lbmQ9IiIgZD0iTTcwMS42NjY2NjY2NjY2NjY2LDQ2MSwgODgxLjY2NjY2NjY2NjY2NjYsMjc4IiBzdHlsZT0ic3Ryb2tlLXdpZHRoOiAwLjg2cHg7IHN0cm9rZS1vcGFjaXR5OiAxOyBzdHJva2U6IHJnYigyNTUsIDEzOCwgMTM4KTsiLz48cGF0aCBjbGFzcz0ibGluayIgbWFya2VyLWVuZD0iIiBkPSJNNzAxLjY2NjY2NjY2NjY2NjYsNTI0LCA4ODEuNjY2NjY2NjY2NjY2NiwyNzgiIHN0eWxlPSJzdHJva2Utd2lkdGg6IDAuODZweDsgc3Ryb2tlLW9wYWNpdHk6IDE7IHN0cm9rZTogcmdiKDI1NSwgMTQ2LCAxNDYpOyIvPjxjaXJjbGUgcj0iMTAiIGNsYXNzPSJub2RlIiBpZD0iMF8wIiBjeD0iNTIxLjY2NjY2NjY2NjY2NjYiIGN5PSIzNTkiIHN0eWxlPSJmaWxsOiByZ2IoMjU1LCAyNTUsIDI1NSk7IHN0cm9rZTogcmdiKDAsIDAsIDApOyIvPjxjaXJjbGUgcj0iMTAiIGNsYXNzPSJub2RlIiBpZD0iMF8xIiBjeD0iNTIxLjY2NjY2NjY2NjY2NjYiIGN5PSIzOTgiIHN0eWxlPSJmaWxsOiByZ2IoMjU1LCAyNTUsIDI1NSk7IHN0cm9rZTogcmdiKDAsIDAsIDApOyIvPjxjaXJjbGUgcj0iMTAiIGNsYXNzPSJub2RlIiBpZD0iMF8yIiBjeD0iNTIxLjY2NjY2NjY2NjY2NjYiIGN5PSI0MzciIHN0eWxlPSJmaWxsOiByZ2IoMjU1LCAyNTUsIDI1NSk7IHN0cm9rZTogcmdiKDAsIDAsIDApOyIvPjxjaXJjbGUgcj0iMTAiIGNsYXNzPSJub2RlIiBpZD0iMV8wIiBjeD0iNzAxLjY2NjY2NjY2NjY2NjYiIGN5PSIyNzIiIHN0eWxlPSJmaWxsOiByZ2IoMjU1LCAyNTUsIDI1NSk7IHN0cm9rZTogcmdiKDAsIDAsIDApOyIvPjxjaXJjbGUgcj0iMTAiIGNsYXNzPSJub2RlIiBpZD0iMV8xIiBjeD0iNzAxLjY2NjY2NjY2NjY2NjYiIGN5PSIzMzUiIHN0eWxlPSJmaWxsOiByZ2IoMjU1LCAyNTUsIDI1NSk7IHN0cm9rZTogcmdiKDAsIDAsIDApOyIvPjxjaXJjbGUgcj0iMTAiIGNsYXNzPSJub2RlIiBpZD0iMV8yIiBjeD0iNzAxLjY2NjY2NjY2NjY2NjYiIGN5PSIzOTgiIHN0eWxlPSJmaWxsOiByZ2IoMjU1LCAyNTUsIDI1NSk7IHN0cm9rZTogcmdiKDAsIDAsIDApOyIvPjxjaXJjbGUgcj0iMTAiIGNsYXNzPSJub2RlIiBpZD0iMV8zIiBjeD0iNzAxLjY2NjY2NjY2NjY2NjYiIGN5PSI0NjEiIHN0eWxlPSJmaWxsOiByZ2IoMjU1LCAyNTUsIDI1NSk7IHN0cm9rZTogcmdiKDAsIDAsIDApOyIvPjxjaXJjbGUgcj0iMTAiIGNsYXNzPSJub2RlIiBpZD0iMV80IiBjeD0iNzAxLjY2NjY2NjY2NjY2NjYiIGN5PSI1MjQiIHN0eWxlPSJmaWxsOiByZ2IoMjU1LCAyNTUsIDI1NSk7IHN0cm9rZTogcmdiKDAsIDAsIDApOyIvPjxjaXJjbGUgcj0iMTAiIGNsYXNzPSJub2RlIiBpZD0iMl8wIiBjeD0iODgxLjY2NjY2NjY2NjY2NjYiIGN5PSIyNzgiIHN0eWxlPSJmaWxsOiByZ2IoMjU1LCAyNTUsIDI1NSk7IHN0cm9rZTogcmdiKDAsIDAsIDApOyIvPjxjaXJjbGUgcj0iMTAiIGNsYXNzPSJub2RlIiBpZD0iMl8xIiBjeD0iODgxLjY2NjY2NjY2NjY2NjYiIGN5PSIzMzgiIHN0eWxlPSJmaWxsOiByZ2IoMjU1LCAyNTUsIDI1NSk7IHN0cm9rZTogcmdiKDAsIDAsIDApOyIvPjxjaXJjbGUgcj0iMTAiIGNsYXNzPSJub2RlIiBpZD0iMl8yIiBjeD0iODgxLjY2NjY2NjY2NjY2NjYiIGN5PSIzOTgiIHN0eWxlPSJmaWxsOiByZ2IoMjU1LCAyNTUsIDI1NSk7IHN0cm9rZTogcmdiKDAsIDAsIDApOyIvPjxjaXJjbGUgcj0iMTAiIGNsYXNzPSJub2RlIiBpZD0iMl8zIiBjeD0iODgxLjY2NjY2NjY2NjY2NjYiIGN5PSI0NTgiIHN0eWxlPSJmaWxsOiByZ2IoMjU1LCAyNTUsIDI1NSk7IHN0cm9rZTogcmdiKDAsIDAsIDApOyIvPjxjaXJjbGUgcj0iMTAiIGNsYXNzPSJub2RlIiBpZD0iMl80IiBjeD0iODgxLjY2NjY2NjY2NjY2NjYiIGN5PSI1MTgiIHN0eWxlPSJmaWxsOiByZ2IoMjU1LCAyNTUsIDI1NSk7IHN0cm9rZTogcmdiKDAsIDAsIDApOyIvPjxjaXJjbGUgcj0iMTAiIGNsYXNzPSJub2RlIiBpZD0iM18wIiBjeD0iMTA2MS42NjY2NjY2NjY2NjY3IiBjeT0iMzY5IiBzdHlsZT0iZmlsbDogcmdiKDI1NSwgMjU1LCAyNTUpOyBzdHJva2U6IHJnYigwLCAwLCAwKTsiLz48dGV4dCBjbGFzcz0idGV4dCIgZHk9Ii4zNWVtIiB4PSI0ODYuNjY2NjY2NjY2NjY2NjMiIHk9IjU2NCIgc3R5bGU9ImZvbnQtc2l6ZTogMTJweDsiLz48dGV4dCBjbGFzcz0idGV4dCIgZHk9Ii4zNWVtIiB4PSI2NjYuNjY2NjY2NjY2NjY2NiIgeT0iNTY0IiBzdHlsZT0iZm9udC1zaXplOiAxMnB4OyIvPjx0ZXh0IGNsYXNzPSJ0ZXh0IiBkeT0iLjM1ZW0iIHg9Ijg0Ni42NjY2NjY2NjY2NjY2IiB5PSI1NjQiIHN0eWxlPSJmb250LXNpemU6IDEycHg7Ii8+PHRleHQgY2xhc3M9InRleHQiIGR5PSIuMzVlbSIgeD0iMTAyNi42NjY2NjY2NjY2NjY3IiB5PSI1NjQiIHN0eWxlPSJmb250LXNpemU6IDEycHg7Ii8+PGNpcmNsZSByPSIxMCIgY2xhc3M9Im5vZGUiIGlkPSIzXzEiIGN4PSIxMDYxLjY2NjY2NjY2NjY2NjciIGN5PSI0MjciIHN0eWxlPSJmaWxsOiByZ2IoMjU1LCAyNTUsIDI1NSk7IHN0cm9rZTogcmdiKDAsIDAsIDApOyIvPjwvZz48ZGVmcz48bWFya2VyIGlkPSJhcnJvdyIgdmlld0JveD0iMCAtNSAxMCAxMCIgbWFya2VyV2lkdGg9IjciIG1hcmtlckhlaWdodD0iNyIgb3JpZW50PSJhdXRvIiByZWZYPSI0MCI+PHBhdGggZD0iTTAsLTVMMTAsMEwwLDUiIHN0eWxlPSJzdHJva2U6IHJnYig4MCwgODAsIDgwKTsgZmlsbDogbm9uZTsiLz48L21hcmtlcj48L2RlZnM+PC9zdmc+;" vertex="1" parent="1">
                    <mxGeometry x="690" y="840" width="323.88" height="180" as="geometry"/>
                </mxCell>
                <mxCell id="319" value="" style="shape=image;verticalLabelPosition=bottom;labelBackgroundColor=#ffffff;verticalAlign=top;aspect=fixed;imageAspect=0;image=data:image/svg+xml,PHN2ZyB4bWxucz0iaHR0cDovL3d3dy53My5vcmcvMjAwMC9zdmciIHdpZHRoPSIxNDcwIiBoZWlnaHQ9IjgxNiIgc3R5bGU9ImN1cnNvcjogbW92ZTsiIHZpZXdCb3g9IjAgMCAxNDcwIDgxNiI+PGcgdHJhbnNmb3JtPSJ0cmFuc2xhdGUoLTExOTAuNjQyNjIwMjg1MDM1LC01NjkuNjE5MzY5MTUwMzIxMSkgc2NhbGUoMi40MzUxMzIwMzczMjU5NjYpIj48cGF0aCBjbGFzcz0ibGluayIgbWFya2VyLWVuZD0iIiBkPSJNNTIxLjY2NjY2NjY2NjY2NjYsMzU5LCA3MDEuNjY2NjY2NjY2NjY2NiwzMzUiIHN0eWxlPSJzdHJva2Utd2lkdGg6IDAuODZweDsgc3Ryb2tlLW9wYWNpdHk6IDE7IHN0cm9rZTogcmdiKDEyLCAxMiwgMjU1KTsiLz48cGF0aCBjbGFzcz0ibGluayIgbWFya2VyLWVuZD0iIiBkPSJNNTIxLjY2NjY2NjY2NjY2NjYsMzU5LCA3MDEuNjY2NjY2NjY2NjY2NiwzOTgiIHN0eWxlPSJzdHJva2Utd2lkdGg6IDAuODZweDsgc3Ryb2tlLW9wYWNpdHk6IDE7IHN0cm9rZTogcmdiKDIzMiwgMjMyLCAyNTUpOyIvPjxwYXRoIGNsYXNzPSJsaW5rIiBtYXJrZXItZW5kPSIiIGQ9Ik01MjEuNjY2NjY2NjY2NjY2NiwzNTksIDcwMS42NjY2NjY2NjY2NjY2LDQ2MSIgc3R5bGU9InN0cm9rZS13aWR0aDogMC44NnB4OyBzdHJva2Utb3BhY2l0eTogMTsgc3Ryb2tlOiByZ2IoODcsIDg3LCAyNTUpOyIvPjxwYXRoIGNsYXNzPSJsaW5rIiBtYXJrZXItZW5kPSIiIGQ9Ik01MjEuNjY2NjY2NjY2NjY2NiwzNTksIDcwMS42NjY2NjY2NjY2NjY2LDUyNCIgc3R5bGU9InN0cm9rZS13aWR0aDogMC44NnB4OyBzdHJva2Utb3BhY2l0eTogMTsgc3Ryb2tlOiByZ2IoMjQwLCAyNDAsIDI1NSk7Ii8+PHBhdGggY2xhc3M9ImxpbmsiIG1hcmtlci1lbmQ9IiIgZD0iTTUyMS42NjY2NjY2NjY2NjY2LDM5OCwgNzAxLjY2NjY2NjY2NjY2NjYsMzM1IiBzdHlsZT0ic3Ryb2tlLXdpZHRoOiAwLjg2cHg7IHN0cm9rZS1vcGFjaXR5OiAxOyBzdHJva2U6IHJnYigyNTUsIDEyNSwgMTI1KTsiLz48cGF0aCBjbGFzcz0ibGluayIgbWFya2VyLWVuZD0iIiBkPSJNNTIxLjY2NjY2NjY2NjY2NjYsMzk4LCA3MDEuNjY2NjY2NjY2NjY2NiwzOTgiIHN0eWxlPSJzdHJva2Utd2lkdGg6IDAuODZweDsgc3Ryb2tlLW9wYWNpdHk6IDE7IHN0cm9rZTogcmdiKDI1NSwgMTU4LCAxNTgpOyIvPjxwYXRoIGNsYXNzPSJsaW5rIiBtYXJrZXItZW5kPSIiIGQ9Ik01MjEuNjY2NjY2NjY2NjY2NiwzOTgsIDcwMS42NjY2NjY2NjY2NjY2LDQ2MSIgc3R5bGU9InN0cm9rZS13aWR0aDogMC44NnB4OyBzdHJva2Utb3BhY2l0eTogMTsgc3Ryb2tlOiByZ2IoMzgsIDM4LCAyNTUpOyIvPjxwYXRoIGNsYXNzPSJsaW5rIiBtYXJrZXItZW5kPSIiIGQ9Ik01MjEuNjY2NjY2NjY2NjY2NiwzOTgsIDcwMS42NjY2NjY2NjY2NjY2LDUyNCIgc3R5bGU9InN0cm9rZS13aWR0aDogMC44NnB4OyBzdHJva2Utb3BhY2l0eTogMTsgc3Ryb2tlOiByZ2IoMjU1LCAxNTcsIDE1Nyk7Ii8+PHBhdGggY2xhc3M9ImxpbmsiIG1hcmtlci1lbmQ9IiIgZD0iTTUyMS42NjY2NjY2NjY2NjY2LDQzNywgNzAxLjY2NjY2NjY2NjY2NjYsMzM1IiBzdHlsZT0ic3Ryb2tlLXdpZHRoOiAwLjg2cHg7IHN0cm9rZS1vcGFjaXR5OiAxOyBzdHJva2U6IHJnYigyNTUsIDIyOSwgMjI5KTsiLz48cGF0aCBjbGFzcz0ibGluayIgbWFya2VyLWVuZD0iIiBkPSJNNTIxLjY2NjY2NjY2NjY2NjYsNDM3LCA3MDEuNjY2NjY2NjY2NjY2NiwzOTgiIHN0eWxlPSJzdHJva2Utd2lkdGg6IDAuODZweDsgc3Ryb2tlLW9wYWNpdHk6IDE7IHN0cm9rZTogcmdiKDI1NSwgMjU0LCAyNTQpOyIvPjxwYXRoIGNsYXNzPSJsaW5rIiBtYXJrZXItZW5kPSIiIGQ9Ik01MjEuNjY2NjY2NjY2NjY2Niw0MzcsIDcwMS42NjY2NjY2NjY2NjY2LDQ2MSIgc3R5bGU9InN0cm9rZS13aWR0aDogMC44NnB4OyBzdHJva2Utb3BhY2l0eTogMTsgc3Ryb2tlOiByZ2IoMTc5LCAxNzksIDI1NSk7Ii8+PHBhdGggY2xhc3M9ImxpbmsiIG1hcmtlci1lbmQ9IiIgZD0iTTUyMS42NjY2NjY2NjY2NjY2LDQzNywgNzAxLjY2NjY2NjY2NjY2NjYsNTI0IiBzdHlsZT0ic3Ryb2tlLXdpZHRoOiAwLjg2cHg7IHN0cm9rZS1vcGFjaXR5OiAxOyBzdHJva2U6IHJnYigyNTUsIDEzOSwgMTM5KTsiLz48cGF0aCBjbGFzcz0ibGluayIgbWFya2VyLWVuZD0iIiBkPSJNNzAxLjY2NjY2NjY2NjY2NjYsMjcyLCA4ODEuNjY2NjY2NjY2NjY2NiwzMzgiIHN0eWxlPSJzdHJva2Utd2lkdGg6IDAuODZweDsgc3Ryb2tlLW9wYWNpdHk6IDE7IHN0cm9rZTogcmdiKDMsIDMsIDI1NSk7Ii8+PHBhdGggY2xhc3M9ImxpbmsiIG1hcmtlci1lbmQ9IiIgZD0iTTcwMS42NjY2NjY2NjY2NjY2LDI3MiwgODgxLjY2NjY2NjY2NjY2NjYsMzk4IiBzdHlsZT0ic3Ryb2tlLXdpZHRoOiAwLjg2cHg7IHN0cm9rZS1vcGFjaXR5OiAxOyBzdHJva2U6IHJnYigyNTUsIDE1OSwgMTU5KTsiLz48cGF0aCBjbGFzcz0ibGluayIgbWFya2VyLWVuZD0iIiBkPSJNNzAxLjY2NjY2NjY2NjY2NjYsMjcyLCA4ODEuNjY2NjY2NjY2NjY2Niw0NTgiIHN0eWxlPSJzdHJva2Utd2lkdGg6IDAuODZweDsgc3Ryb2tlLW9wYWNpdHk6IDE7IHN0cm9rZTogcmdiKDI1NSwgODQsIDg0KTsiLz48cGF0aCBjbGFzcz0ibGluayIgbWFya2VyLWVuZD0iIiBkPSJNNzAxLjY2NjY2NjY2NjY2NjYsMjcyLCA4ODEuNjY2NjY2NjY2NjY2Niw1MTgiIHN0eWxlPSJzdHJva2Utd2lkdGg6IDAuODZweDsgc3Ryb2tlLW9wYWNpdHk6IDE7IHN0cm9rZTogcmdiKDI1NSwgMzIsIDMyKTsiLz48cGF0aCBjbGFzcz0ibGluayIgbWFya2VyLWVuZD0iIiBkPSJNNzAxLjY2NjY2NjY2NjY2NjYsMzM1LCA4ODEuNjY2NjY2NjY2NjY2NiwzMzgiIHN0eWxlPSJzdHJva2Utd2lkdGg6IDAuODZweDsgc3Ryb2tlLW9wYWNpdHk6IDE7IHN0cm9rZTogcmdiKDg5LCA4OSwgMjU1KTsiLz48cGF0aCBjbGFzcz0ibGluayIgbWFya2VyLWVuZD0iIiBkPSJNNzAxLjY2NjY2NjY2NjY2NjYsMzM1LCA4ODEuNjY2NjY2NjY2NjY2NiwzOTgiIHN0eWxlPSJzdHJva2Utd2lkdGg6IDAuODZweDsgc3Ryb2tlLW9wYWNpdHk6IDE7IHN0cm9rZTogcmdiKDIzMiwgMjMyLCAyNTUpOyIvPjxwYXRoIGNsYXNzPSJsaW5rIiBtYXJrZXItZW5kPSIiIGQ9Ik03MDEuNjY2NjY2NjY2NjY2NiwzMzUsIDg4MS42NjY2NjY2NjY2NjY2LDQ1OCIgc3R5bGU9InN0cm9rZS13aWR0aDogMC44NnB4OyBzdHJva2Utb3BhY2l0eTogMTsgc3Ryb2tlOiByZ2IoOTMsIDkzLCAyNTUpOyIvPjxwYXRoIGNsYXNzPSJsaW5rIiBtYXJrZXItZW5kPSIiIGQ9Ik03MDEuNjY2NjY2NjY2NjY2NiwzMzUsIDg4MS42NjY2NjY2NjY2NjY2LDUxOCIgc3R5bGU9InN0cm9rZS13aWR0aDogMC44NnB4OyBzdHJva2Utb3BhY2l0eTogMTsgc3Ryb2tlOiByZ2IoNTAsIDUwLCAyNTUpOyIvPjxwYXRoIGNsYXNzPSJsaW5rIiBtYXJrZXItZW5kPSIiIGQ9Ik03MDEuNjY2NjY2NjY2NjY2NiwzOTgsIDg4MS42NjY2NjY2NjY2NjY2LDMzOCIgc3R5bGU9InN0cm9rZS13aWR0aDogMC44NnB4OyBzdHJva2Utb3BhY2l0eTogMTsgc3Ryb2tlOiByZ2IoMjQ5LCAyNDksIDI1NSk7Ii8+PHBhdGggY2xhc3M9ImxpbmsiIG1hcmtlci1lbmQ9IiIgZD0iTTcwMS42NjY2NjY2NjY2NjY2LDM5OCwgODgxLjY2NjY2NjY2NjY2NjYsMzk4IiBzdHlsZT0ic3Ryb2tlLXdpZHRoOiAwLjg2cHg7IHN0cm9rZS1vcGFjaXR5OiAxOyBzdHJva2U6IHJnYigzMiwgMzIsIDI1NSk7Ii8+PHBhdGggY2xhc3M9ImxpbmsiIG1hcmtlci1lbmQ9IiIgZD0iTTcwMS42NjY2NjY2NjY2NjY2LDM5OCwgODgxLjY2NjY2NjY2NjY2NjYsNDU4IiBzdHlsZT0ic3Ryb2tlLXdpZHRoOiAwLjg2cHg7IHN0cm9rZS1vcGFjaXR5OiAxOyBzdHJva2U6IHJnYigxODQsIDE4NCwgMjU1KTsiLz48cGF0aCBjbGFzcz0ibGluayIgbWFya2VyLWVuZD0iIiBkPSJNNzAxLjY2NjY2NjY2NjY2NjYsMzk4LCA4ODEuNjY2NjY2NjY2NjY2Niw1MTgiIHN0eWxlPSJzdHJva2Utd2lkdGg6IDAuODZweDsgc3Ryb2tlLW9wYWNpdHk6IDE7IHN0cm9rZTogcmdiKDI1NSwgMTY2LCAxNjYpOyIvPjxwYXRoIGNsYXNzPSJsaW5rIiBtYXJrZXItZW5kPSIiIGQ9Ik03MDEuNjY2NjY2NjY2NjY2Niw0NjEsIDg4MS42NjY2NjY2NjY2NjY2LDMzOCIgc3R5bGU9InN0cm9rZS13aWR0aDogMC44NnB4OyBzdHJva2Utb3BhY2l0eTogMTsgc3Ryb2tlOiByZ2IoMTYwLCAxNjAsIDI1NSk7Ii8+PHBhdGggY2xhc3M9ImxpbmsiIG1hcmtlci1lbmQ9IiIgZD0iTTcwMS42NjY2NjY2NjY2NjY2LDQ2MSwgODgxLjY2NjY2NjY2NjY2NjYsMzk4IiBzdHlsZT0ic3Ryb2tlLXdpZHRoOiAwLjg2cHg7IHN0cm9rZS1vcGFjaXR5OiAxOyBzdHJva2U6IHJnYigyNTUsIDIxNSwgMjE1KTsiLz48cGF0aCBjbGFzcz0ibGluayIgbWFya2VyLWVuZD0iIiBkPSJNNzAxLjY2NjY2NjY2NjY2NjYsNDYxLCA4ODEuNjY2NjY2NjY2NjY2Niw0NTgiIHN0eWxlPSJzdHJva2Utd2lkdGg6IDAuODZweDsgc3Ryb2tlLW9wYWNpdHk6IDE7IHN0cm9rZTogcmdiKDI1NSwgMjAsIDIwKTsiLz48cGF0aCBjbGFzcz0ibGluayIgbWFya2VyLWVuZD0iIiBkPSJNNzAxLjY2NjY2NjY2NjY2NjYsNDYxLCA4ODEuNjY2NjY2NjY2NjY2Niw1MTgiIHN0eWxlPSJzdHJva2Utd2lkdGg6IDAuODZweDsgc3Ryb2tlLW9wYWNpdHk6IDE7IHN0cm9rZTogcmdiKDI1NSwgMjQyLCAyNDIpOyIvPjxwYXRoIGNsYXNzPSJsaW5rIiBtYXJrZXItZW5kPSIiIGQ9Ik03MDEuNjY2NjY2NjY2NjY2Niw1MjQsIDg4MS42NjY2NjY2NjY2NjY2LDMzOCIgc3R5bGU9InN0cm9rZS13aWR0aDogMC44NnB4OyBzdHJva2Utb3BhY2l0eTogMTsgc3Ryb2tlOiByZ2IoMTg5LCAxODksIDI1NSk7Ii8+PHBhdGggY2xhc3M9ImxpbmsiIG1hcmtlci1lbmQ9IiIgZD0iTTcwMS42NjY2NjY2NjY2NjY2LDUyNCwgODgxLjY2NjY2NjY2NjY2NjYsMzk4IiBzdHlsZT0ic3Ryb2tlLXdpZHRoOiAwLjg2cHg7IHN0cm9rZS1vcGFjaXR5OiAxOyBzdHJva2U6IHJnYigyNTUsIDAsIDApOyIvPjxwYXRoIGNsYXNzPSJsaW5rIiBtYXJrZXItZW5kPSIiIGQ9Ik03MDEuNjY2NjY2NjY2NjY2Niw1MjQsIDg4MS42NjY2NjY2NjY2NjY2LDQ1OCIgc3R5bGU9InN0cm9rZS13aWR0aDogMC44NnB4OyBzdHJva2Utb3BhY2l0eTogMTsgc3Ryb2tlOiByZ2IoMjU1LCAyMDMsIDIwMyk7Ii8+PHBhdGggY2xhc3M9ImxpbmsiIG1hcmtlci1lbmQ9IiIgZD0iTTcwMS42NjY2NjY2NjY2NjY2LDUyNCwgODgxLjY2NjY2NjY2NjY2NjYsNTE4IiBzdHlsZT0ic3Ryb2tlLXdpZHRoOiAwLjg2cHg7IHN0cm9rZS1vcGFjaXR5OiAxOyBzdHJva2U6IHJnYigxMzcsIDEzNywgMjU1KTsiLz48cGF0aCBjbGFzcz0ibGluayIgbWFya2VyLWVuZD0iIiBkPSJNODgxLjY2NjY2NjY2NjY2NjYsMjc4LCAxMDYxLjY2NjY2NjY2NjY2NjcsMzY5IiBzdHlsZT0ic3Ryb2tlLXdpZHRoOiAwLjg2cHg7IHN0cm9rZS1vcGFjaXR5OiAxOyBzdHJva2U6IHJnYigyNTUsIDY4LCA2OCk7Ii8+PHBhdGggY2xhc3M9ImxpbmsiIG1hcmtlci1lbmQ9IiIgZD0iTTg4MS42NjY2NjY2NjY2NjY2LDMzOCwgMTA2MS42NjY2NjY2NjY2NjY3LDM2OSIgc3R5bGU9InN0cm9rZS13aWR0aDogMC44NnB4OyBzdHJva2Utb3BhY2l0eTogMTsgc3Ryb2tlOiByZ2IoMTI1LCAxMjUsIDI1NSk7Ii8+PHBhdGggY2xhc3M9ImxpbmsiIG1hcmtlci1lbmQ9IiIgZD0iTTg4MS42NjY2NjY2NjY2NjY2LDM5OCwgMTA2MS42NjY2NjY2NjY2NjY3LDM2OSIgc3R5bGU9InN0cm9rZS13aWR0aDogMC44NnB4OyBzdHJva2Utb3BhY2l0eTogMTsgc3Ryb2tlOiByZ2IoMjM1LCAyMzUsIDI1NSk7Ii8+PHBhdGggY2xhc3M9ImxpbmsiIG1hcmtlci1lbmQ9IiIgZD0iTTg4MS42NjY2NjY2NjY2NjY2LDQ1OCwgMTA2MS42NjY2NjY2NjY2NjY3LDM2OSIgc3R5bGU9InN0cm9rZS13aWR0aDogMC44NnB4OyBzdHJva2Utb3BhY2l0eTogMTsgc3Ryb2tlOiByZ2IoMjU1LCAxNjQsIDE2NCk7Ii8+PHBhdGggY2xhc3M9ImxpbmsiIG1hcmtlci1lbmQ9IiIgZD0iTTg4MS42NjY2NjY2NjY2NjY2LDUxOCwgMTA2MS42NjY2NjY2NjY2NjY3LDM2OSIgc3R5bGU9InN0cm9rZS13aWR0aDogMC44NnB4OyBzdHJva2Utb3BhY2l0eTogMTsgc3Ryb2tlOiByZ2IoMjU1LCA4NCwgODQpOyIvPjxwYXRoIGNsYXNzPSJsaW5rIiBtYXJrZXItZW5kPSIiIGQ9Ik04ODEuNjY2NjY2NjY2NjY2NiwyNzgsIDEwNjEuNjY2NjY2NjY2NjY2Nyw0MjciIHN0eWxlPSJzdHJva2Utd2lkdGg6IDAuODZweDsgc3Ryb2tlLW9wYWNpdHk6IDE7IHN0cm9rZTogcmdiKDE4MSwgMTgxLCAyNTUpOyIvPjxwYXRoIGNsYXNzPSJsaW5rIiBtYXJrZXItZW5kPSIiIGQ9Ik04ODEuNjY2NjY2NjY2NjY2NiwzMzgsIDEwNjEuNjY2NjY2NjY2NjY2Nyw0MjciIHN0eWxlPSJzdHJva2Utd2lkdGg6IDAuODZweDsgc3Ryb2tlLW9wYWNpdHk6IDE7IHN0cm9rZTogcmdiKDkwLCA5MCwgMjU1KTsiLz48cGF0aCBjbGFzcz0ibGluayIgbWFya2VyLWVuZD0iIiBkPSJNODgxLjY2NjY2NjY2NjY2NjYsMzk4LCAxMDYxLjY2NjY2NjY2NjY2NjcsNDI3IiBzdHlsZT0ic3Ryb2tlLXdpZHRoOiAwLjg2cHg7IHN0cm9rZS1vcGFjaXR5OiAxOyBzdHJva2U6IHJnYig3LCA3LCAyNTUpOyIvPjxwYXRoIGNsYXNzPSJsaW5rIiBtYXJrZXItZW5kPSIiIGQ9Ik04ODEuNjY2NjY2NjY2NjY2Niw0NTgsIDEwNjEuNjY2NjY2NjY2NjY2Nyw0MjciIHN0eWxlPSJzdHJva2Utd2lkdGg6IDAuODZweDsgc3Ryb2tlLW9wYWNpdHk6IDE7IHN0cm9rZTogcmdiKDI1NSwgMTgsIDE4KTsiLz48cGF0aCBjbGFzcz0ibGluayIgbWFya2VyLWVuZD0iIiBkPSJNODgxLjY2NjY2NjY2NjY2NjYsNTE4LCAxMDYxLjY2NjY2NjY2NjY2NjcsNDI3IiBzdHlsZT0ic3Ryb2tlLXdpZHRoOiAwLjg2cHg7IHN0cm9rZS1vcGFjaXR5OiAxOyBzdHJva2U6IHJnYigyMDksIDIwOSwgMjU1KTsiLz48cGF0aCBjbGFzcz0ibGluayIgbWFya2VyLWVuZD0iIiBkPSJNNTIxLjY2NjY2NjY2NjY2NjYsMzU5LCA3MDEuNjY2NjY2NjY2NjY2NiwyNzIiIHN0eWxlPSJzdHJva2Utd2lkdGg6IDAuODZweDsgc3Ryb2tlLW9wYWNpdHk6IDE7IHN0cm9rZTogcmdiKDI1NSwgMjQyLCAyNDIpOyIvPjxwYXRoIGNsYXNzPSJsaW5rIiBtYXJrZXItZW5kPSIiIGQ9Ik01MjEuNjY2NjY2NjY2NjY2NiwzOTgsIDcwMS42NjY2NjY2NjY2NjY2LDI3MiIgc3R5bGU9InN0cm9rZS13aWR0aDogMC44NnB4OyBzdHJva2Utb3BhY2l0eTogMTsgc3Ryb2tlOiByZ2IoMjU1LCAyMzAsIDIzMCk7Ii8+PHBhdGggY2xhc3M9ImxpbmsiIG1hcmtlci1lbmQ9IiIgZD0iTTUyMS42NjY2NjY2NjY2NjY2LDQzNywgNzAxLjY2NjY2NjY2NjY2NjYsMjcyIiBzdHlsZT0ic3Ryb2tlLXdpZHRoOiAwLjg2cHg7IHN0cm9rZS1vcGFjaXR5OiAxOyBzdHJva2U6IHJnYigyMzEsIDIzMSwgMjU1KTsiLz48cGF0aCBjbGFzcz0ibGluayIgbWFya2VyLWVuZD0iIiBkPSJNNzAxLjY2NjY2NjY2NjY2NjYsMjcyLCA4ODEuNjY2NjY2NjY2NjY2NiwyNzgiIHN0eWxlPSJzdHJva2Utd2lkdGg6IDAuODZweDsgc3Ryb2tlLW9wYWNpdHk6IDE7IHN0cm9rZTogcmdiKDEyLCAxMiwgMjU1KTsiLz48cGF0aCBjbGFzcz0ibGluayIgbWFya2VyLWVuZD0iIiBkPSJNNzAxLjY2NjY2NjY2NjY2NjYsMzM1LCA4ODEuNjY2NjY2NjY2NjY2NiwyNzgiIHN0eWxlPSJzdHJva2Utd2lkdGg6IDAuODZweDsgc3Ryb2tlLW9wYWNpdHk6IDE7IHN0cm9rZTogcmdiKDIxOCwgMjE4LCAyNTUpOyIvPjxwYXRoIGNsYXNzPSJsaW5rIiBtYXJrZXItZW5kPSIiIGQ9Ik03MDEuNjY2NjY2NjY2NjY2NiwzOTgsIDg4MS42NjY2NjY2NjY2NjY2LDI3OCIgc3R5bGU9InN0cm9rZS13aWR0aDogMC44NnB4OyBzdHJva2Utb3BhY2l0eTogMTsgc3Ryb2tlOiByZ2IoMjU1LCAyMDMsIDIwMyk7Ii8+PHBhdGggY2xhc3M9ImxpbmsiIG1hcmtlci1lbmQ9IiIgZD0iTTcwMS42NjY2NjY2NjY2NjY2LDQ2MSwgODgxLjY2NjY2NjY2NjY2NjYsMjc4IiBzdHlsZT0ic3Ryb2tlLXdpZHRoOiAwLjg2cHg7IHN0cm9rZS1vcGFjaXR5OiAxOyBzdHJva2U6IHJnYigyNTUsIDEzOCwgMTM4KTsiLz48cGF0aCBjbGFzcz0ibGluayIgbWFya2VyLWVuZD0iIiBkPSJNNzAxLjY2NjY2NjY2NjY2NjYsNTI0LCA4ODEuNjY2NjY2NjY2NjY2NiwyNzgiIHN0eWxlPSJzdHJva2Utd2lkdGg6IDAuODZweDsgc3Ryb2tlLW9wYWNpdHk6IDE7IHN0cm9rZTogcmdiKDI1NSwgMTQ2LCAxNDYpOyIvPjxjaXJjbGUgcj0iMTAiIGNsYXNzPSJub2RlIiBpZD0iMF8wIiBjeD0iNTIxLjY2NjY2NjY2NjY2NjYiIGN5PSIzNTkiIHN0eWxlPSJmaWxsOiByZ2IoMjU1LCAyNTUsIDI1NSk7IHN0cm9rZTogcmdiKDAsIDAsIDApOyIvPjxjaXJjbGUgcj0iMTAiIGNsYXNzPSJub2RlIiBpZD0iMF8xIiBjeD0iNTIxLjY2NjY2NjY2NjY2NjYiIGN5PSIzOTgiIHN0eWxlPSJmaWxsOiByZ2IoMjU1LCAyNTUsIDI1NSk7IHN0cm9rZTogcmdiKDAsIDAsIDApOyIvPjxjaXJjbGUgcj0iMTAiIGNsYXNzPSJub2RlIiBpZD0iMF8yIiBjeD0iNTIxLjY2NjY2NjY2NjY2NjYiIGN5PSI0MzciIHN0eWxlPSJmaWxsOiByZ2IoMjU1LCAyNTUsIDI1NSk7IHN0cm9rZTogcmdiKDAsIDAsIDApOyIvPjxjaXJjbGUgcj0iMTAiIGNsYXNzPSJub2RlIiBpZD0iMV8wIiBjeD0iNzAxLjY2NjY2NjY2NjY2NjYiIGN5PSIyNzIiIHN0eWxlPSJmaWxsOiByZ2IoMjU1LCAyNTUsIDI1NSk7IHN0cm9rZTogcmdiKDAsIDAsIDApOyIvPjxjaXJjbGUgcj0iMTAiIGNsYXNzPSJub2RlIiBpZD0iMV8xIiBjeD0iNzAxLjY2NjY2NjY2NjY2NjYiIGN5PSIzMzUiIHN0eWxlPSJmaWxsOiByZ2IoMjU1LCAyNTUsIDI1NSk7IHN0cm9rZTogcmdiKDAsIDAsIDApOyIvPjxjaXJjbGUgcj0iMTAiIGNsYXNzPSJub2RlIiBpZD0iMV8yIiBjeD0iNzAxLjY2NjY2NjY2NjY2NjYiIGN5PSIzOTgiIHN0eWxlPSJmaWxsOiByZ2IoMjU1LCAyNTUsIDI1NSk7IHN0cm9rZTogcmdiKDAsIDAsIDApOyIvPjxjaXJjbGUgcj0iMTAiIGNsYXNzPSJub2RlIiBpZD0iMV8zIiBjeD0iNzAxLjY2NjY2NjY2NjY2NjYiIGN5PSI0NjEiIHN0eWxlPSJmaWxsOiByZ2IoMjU1LCAyNTUsIDI1NSk7IHN0cm9rZTogcmdiKDAsIDAsIDApOyIvPjxjaXJjbGUgcj0iMTAiIGNsYXNzPSJub2RlIiBpZD0iMV80IiBjeD0iNzAxLjY2NjY2NjY2NjY2NjYiIGN5PSI1MjQiIHN0eWxlPSJmaWxsOiByZ2IoMjU1LCAyNTUsIDI1NSk7IHN0cm9rZTogcmdiKDAsIDAsIDApOyIvPjxjaXJjbGUgcj0iMTAiIGNsYXNzPSJub2RlIiBpZD0iMl8wIiBjeD0iODgxLjY2NjY2NjY2NjY2NjYiIGN5PSIyNzgiIHN0eWxlPSJmaWxsOiByZ2IoMjU1LCAyNTUsIDI1NSk7IHN0cm9rZTogcmdiKDAsIDAsIDApOyIvPjxjaXJjbGUgcj0iMTAiIGNsYXNzPSJub2RlIiBpZD0iMl8xIiBjeD0iODgxLjY2NjY2NjY2NjY2NjYiIGN5PSIzMzgiIHN0eWxlPSJmaWxsOiByZ2IoMjU1LCAyNTUsIDI1NSk7IHN0cm9rZTogcmdiKDAsIDAsIDApOyIvPjxjaXJjbGUgcj0iMTAiIGNsYXNzPSJub2RlIiBpZD0iMl8yIiBjeD0iODgxLjY2NjY2NjY2NjY2NjYiIGN5PSIzOTgiIHN0eWxlPSJmaWxsOiByZ2IoMjU1LCAyNTUsIDI1NSk7IHN0cm9rZTogcmdiKDAsIDAsIDApOyIvPjxjaXJjbGUgcj0iMTAiIGNsYXNzPSJub2RlIiBpZD0iMl8zIiBjeD0iODgxLjY2NjY2NjY2NjY2NjYiIGN5PSI0NTgiIHN0eWxlPSJmaWxsOiByZ2IoMjU1LCAyNTUsIDI1NSk7IHN0cm9rZTogcmdiKDAsIDAsIDApOyIvPjxjaXJjbGUgcj0iMTAiIGNsYXNzPSJub2RlIiBpZD0iMl80IiBjeD0iODgxLjY2NjY2NjY2NjY2NjYiIGN5PSI1MTgiIHN0eWxlPSJmaWxsOiByZ2IoMjU1LCAyNTUsIDI1NSk7IHN0cm9rZTogcmdiKDAsIDAsIDApOyIvPjxjaXJjbGUgcj0iMTAiIGNsYXNzPSJub2RlIiBpZD0iM18wIiBjeD0iMTA2MS42NjY2NjY2NjY2NjY3IiBjeT0iMzY5IiBzdHlsZT0iZmlsbDogcmdiKDI1NSwgMjU1LCAyNTUpOyBzdHJva2U6IHJnYigwLCAwLCAwKTsiLz48dGV4dCBjbGFzcz0idGV4dCIgZHk9Ii4zNWVtIiB4PSI0ODYuNjY2NjY2NjY2NjY2NjMiIHk9IjU2NCIgc3R5bGU9ImZvbnQtc2l6ZTogMTJweDsiLz48dGV4dCBjbGFzcz0idGV4dCIgZHk9Ii4zNWVtIiB4PSI2NjYuNjY2NjY2NjY2NjY2NiIgeT0iNTY0IiBzdHlsZT0iZm9udC1zaXplOiAxMnB4OyIvPjx0ZXh0IGNsYXNzPSJ0ZXh0IiBkeT0iLjM1ZW0iIHg9Ijg0Ni42NjY2NjY2NjY2NjY2IiB5PSI1NjQiIHN0eWxlPSJmb250LXNpemU6IDEycHg7Ii8+PHRleHQgY2xhc3M9InRleHQiIGR5PSIuMzVlbSIgeD0iMTAyNi42NjY2NjY2NjY2NjY3IiB5PSI1NjQiIHN0eWxlPSJmb250LXNpemU6IDEycHg7Ii8+PGNpcmNsZSByPSIxMCIgY2xhc3M9Im5vZGUiIGlkPSIzXzEiIGN4PSIxMDYxLjY2NjY2NjY2NjY2NjciIGN5PSI0MjciIHN0eWxlPSJmaWxsOiByZ2IoMjU1LCAyNTUsIDI1NSk7IHN0cm9rZTogcmdiKDAsIDAsIDApOyIvPjwvZz48ZGVmcz48bWFya2VyIGlkPSJhcnJvdyIgdmlld0JveD0iMCAtNSAxMCAxMCIgbWFya2VyV2lkdGg9IjciIG1hcmtlckhlaWdodD0iNyIgb3JpZW50PSJhdXRvIiByZWZYPSI0MCI+PHBhdGggZD0iTTAsLTVMMTAsMEwwLDUiIHN0eWxlPSJzdHJva2U6IHJnYig4MCwgODAsIDgwKTsgZmlsbDogbm9uZTsiLz48L21hcmtlcj48L2RlZnM+PC9zdmc+;" vertex="1" parent="1">
                    <mxGeometry x="-450" y="651" width="323.88" height="180" as="geometry"/>
                </mxCell>
            </root>
        </mxGraphModel>
    </diagram>
</mxfile>